<svg id="Laag_1" data-name="Laag 1" xmlns="http://www.w3.org/2000/svg" viewBox="0 0 1920 1080"><defs><style>.cls-1{fill:#8BCC6D;}</style></defs><title>Plant</title><path class="cls-1" d="M891.45,965.65c-44.29,21-703.44,9.27-703.44,9.27s-84.46-25.87,4.12-83.47c0,0,48.41-26.85,99.91-18.54s49.94,31.23,97.32,43c35.18,8.69,58.43-24.31,96.52-43.09,2.16-9,4.4-19,6.58-29.68-11.24-8.22-25.64-20.7-33.07-35C446.11,782.65,435,726,435,726s23,23,47.43,59.89a175.78,175.78,0,0,1,15.34,28.47c6.94-42,11.54-91.46,7.33-140.11-.29-3.36-.63-6.77-1-10.24-19.63-6.59-69.27-25.55-96-56.51-33.72-39-76.52-133.15-76.84-133.88.77.47,50.4,31.26,108,85.34,32.37,30.4,51.38,60.37,61.87,80.94C491,567.63,469,480.27,453.47,423.26c-23.59-9.13-60.3-26.34-82-51.43C337.88,333,295.7,174.36,295,171.89c1,1.55,53.92,84.65,111.45,138.66a241.22,241.22,0,0,1,48.48,64c2.54-36.78,14.64-92.6,57-154.19C586.77,111.71,616.65,57,616.65,57S645.7,212,604.7,287.27c-31.71,58.22-102.89,105.56-133.53,124,10.88,31.12,25.89,75.79,39.79,123.05,6-26.83,20.61-72.64,55.67-123.58,55.5-80.65,107.45-130.73,107.45-130.73s-26.9,125-57.33,180.87c-23.94,43.95-78.16,79.55-100.23,92.75,11.84,41.85,22.25,84.53,27.73,120.68,2,13.3,3.36,26.7,4.17,40a266.91,266.91,0,0,1,12.1-35.73c25.56-61.11,53-101.5,53-101.5s-.45,86.52-12.84,127.76c-9.41,31.28-38.55,61.32-52.07,74a772.24,772.24,0,0,1-8.67,81.78c64.08,2.48,95.54,68,158.4,70.79,65.4,2.92,77.76-80.54,132.34-52.72S935.73,944.66,891.45,965.65Z"/></svg>